<?xml version="1.0" encoding="UTF-8" standalone="no"?>
<!-- Created with Inkscape (http://www.inkscape.org/) -->

<svg
   xmlns:dc="http://purl.org/dc/elements/1.1/"
   xmlns:cc="http://creativecommons.org/ns#"
   xmlns:rdf="http://www.w3.org/1999/02/22-rdf-syntax-ns#"
   xmlns:svg="http://www.w3.org/2000/svg"
   xmlns="http://www.w3.org/2000/svg"
   xmlns:sodipodi="http://sodipodi.sourceforge.net/DTD/sodipodi-0.dtd"
   xmlns:inkscape="http://www.inkscape.org/namespaces/inkscape"
   width="210mm"
   height="297mm"
   viewBox="0 0 744.09448819 1052.3622047"
   id="svg2"
   version="1.1"
   inkscape:version="0.91 r13725"
   sodipodi:docname="alphabet_large.svg">
  <defs
     id="defs4" />
  <sodipodi:namedview
     id="base"
     pagecolor="#ffffff"
     bordercolor="#666666"
     borderopacity="1.0"
     inkscape:pageopacity="0.0"
     inkscape:pageshadow="2"
     inkscape:zoom="0.7"
     inkscape:cx="-1188.861"
     inkscape:cy="771.73464"
     inkscape:document-units="px"
     inkscape:current-layer="layer1"
     showgrid="false"
     inkscape:window-width="1920"
     inkscape:window-height="1061"
     inkscape:window-x="1920"
     inkscape:window-y="0"
     inkscape:window-maximized="1" />
  <metadata
     id="metadata7">
    <rdf:RDF>
      <cc:Work
         rdf:about="">
        <dc:format>image/svg+xml</dc:format>
        <dc:type
           rdf:resource="http://purl.org/dc/dcmitype/StillImage" />
      </cc:Work>
    </rdf:RDF>
  </metadata>
  <g
     inkscape:label="Layer 1"
     inkscape:groupmode="layer"
     id="layer1">
    <g
       style="font-style:normal;font-variant:normal;font-weight:normal;font-stretch:normal;font-size:125px;line-height:125%;font-family:'Nimbus Sans L';-inkscape-font-specification:'Nimbus Sans L, Normal';text-align:start;letter-spacing:0px;word-spacing:0px;writing-mode:lr-tb;text-anchor:start;fill:#000000;fill-opacity:1;stroke:none;stroke-width:1px;stroke-linecap:butt;stroke-linejoin:miter;stroke-opacity:1"
       id="text4173-7-9-7"
       transform="translate(-1.9921875e-5,8.5714387)">
      <path
         d="m -1522.7429,478.70148 c -1.125,0.25 -1.625,0.25 -2.25,0.25 -3.625,0 -5.625,-1.875 -5.625,-5.125 l 0,-38.5 c 0,-11.625 -8.5,-17.875 -24.625,-17.875 -9.5,0 -17.375,2.75 -21.75,7.625 -3,3.375 -4.25,7.125 -4.5,13.625 l 10.5,0 c 0.875,-8 5.625,-11.625 15.375,-11.625 9.375,0 14.625,3.5 14.625,9.75 l 0,2.75 c 0,4.375 -2.625,6.25 -10.875,7.25 -14.75,1.875 -17,2.375 -21,4 -7.625,3.125 -11.5,9 -11.5,17.5 0,11.875 8.25,19.375 21.5,19.375 8.25,0 14.875,-2.875 22.25,-9.625 0.75,6.625 4,9.625 10.75,9.625 2.125,0 3.75,-0.25 7.125,-1.125 l 0,-7.875 z m -18.25,-14.5 c 0,3.5 -1,5.625 -4.125,8.5 -4.25,3.875 -9.375,5.875 -15.5,5.875 -8.125,0 -12.875,-3.875 -12.875,-10.5 0,-6.875 4.625,-10.375 15.75,-12 11,-1.5 13.25,-2 16.75,-3.625 l 0,11.75 z"
         id="path4256"
         inkscape:connector-curvature="0" />
    </g>
    <g
       style="font-style:normal;font-variant:normal;font-weight:normal;font-stretch:normal;font-size:125px;line-height:125%;font-family:'Nimbus Sans L';-inkscape-font-specification:'Nimbus Sans L, Normal';text-align:start;letter-spacing:0px;word-spacing:0px;writing-mode:lr-tb;text-anchor:start;fill:#000000;fill-opacity:1;stroke:none;stroke-width:1px;stroke-linecap:butt;stroke-linejoin:miter;stroke-opacity:1"
       id="text4173-7-9-7-6">
      <path
         d="m -1484.5709,402.27292 0,91.125 9.375,0 0,-8.375 c 5,7.625 11.625,11.25 20.75,11.25 17.25,0 28.5,-14.125 28.5,-35.875 0,-21.25 -10.75,-34.375 -28,-34.375 -9,0 -15.375,3.375 -20.25,10.75 l 0,-34.5 -10.375,0 z m 28.625,33.5 c 11.625,0 19.125,10.125 19.125,25.75 0,14.875 -7.75,25 -19.125,25 -11,0 -18.25,-10 -18.25,-25.375 0,-15.375 7.25,-25.375 18.25,-25.375 z"
         style=""
         id="path4286" />
    </g>
    <g
       style="font-style:normal;font-variant:normal;font-weight:normal;font-stretch:normal;font-size:125px;line-height:125%;font-family:'Nimbus Sans L';-inkscape-font-specification:'Nimbus Sans L, Normal';text-align:start;letter-spacing:0px;word-spacing:0px;writing-mode:lr-tb;text-anchor:start;fill:#000000;fill-opacity:1;stroke:none;stroke-width:1px;stroke-linecap:butt;stroke-linejoin:miter;stroke-opacity:1"
       id="text4173-7-9-7-8">
      <path
         d="m -1332.7739,449.89792 c -0.5,-6.375 -1.875,-10.5 -4.375,-14.125 -4.5,-6.125 -12.375,-9.75 -21.5,-9.75 -17.625,0 -29.125,14 -29.125,35.75 0,21.125 11.25,34.5 29,34.5 15.625,0 25.5,-9.375 26.75,-25.375 l -10.5,0 c -1.75,10.5 -7.125,15.75 -16,15.75 -11.5,0 -18.375,-9.375 -18.375,-24.875 0,-16.375 6.75,-26.125 18.125,-26.125 8.75,0 14.25,5.125 15.5,14.25 l 10.5,0 z"
         style=""
         id="path4283" />
    </g>
    <g
       style="font-style:normal;font-variant:normal;font-weight:normal;font-stretch:normal;font-size:125px;line-height:125%;font-family:'Nimbus Sans L';-inkscape-font-specification:'Nimbus Sans L, Normal';text-align:start;letter-spacing:0px;word-spacing:0px;writing-mode:lr-tb;text-anchor:start;fill:#000000;fill-opacity:1;stroke:none;stroke-width:1px;stroke-linecap:butt;stroke-linejoin:miter;stroke-opacity:1"
       id="text4173-7-9-7-4">
      <path
         d="m -1235.2269,402.27292 -10.375,0 0,33.875 c -4.375,-6.625 -11.375,-10.125 -20.125,-10.125 -17,0 -28.125,13.625 -28.125,34.5 0,22.125 10.875,35.75 28.5,35.75 9,0 15.25,-3.375 20.875,-11.5 l 0,8.625 9.25,0 0,-91.125 z m -28.75,33.5 c 11.25,0 18.375,10 18.375,25.625 0,15.125 -7.25,25.125 -18.25,25.125 -11.5,0 -19.125,-10.125 -19.125,-25.375 0,-15.25 7.625,-25.375 19,-25.375 z"
         style=""
         id="path4280" />
    </g>
    <g
       style="font-style:normal;font-variant:normal;font-weight:normal;font-stretch:normal;font-size:125px;line-height:125%;font-family:'Nimbus Sans L';-inkscape-font-specification:'Nimbus Sans L, Normal';text-align:start;letter-spacing:0px;word-spacing:0px;writing-mode:lr-tb;text-anchor:start;fill:#000000;fill-opacity:1;stroke:none;stroke-width:1px;stroke-linecap:butt;stroke-linejoin:miter;stroke-opacity:1"
       id="text4173-7-9-7-0">
      <path
         d="m -1137.9299,464.14792 c 0,-10 -0.75,-16 -2.625,-20.875 -4.25,-10.75 -14.25,-17.25 -26.5,-17.25 -18.25,0 -30,14 -30,35.5 0,21.5 11.375,34.75 29.75,34.75 15,0 25.375,-8.5 28,-22.75 l -10.5,0 c -2.875,8.625 -8.75,13.125 -17.125,13.125 -6.625,0 -12.25,-3 -15.75,-8.5 -2.5,-3.75 -3.375,-7.5 -3.5,-14 l 48.25,0 z m -48,-8.5 c 0.875,-12.125 8.25,-20 18.75,-20 10.25,0 18.125,8.5 18.125,19.25 0,0.25 0,0.5 -0.125,0.75 l -36.75,0 z"
         style=""
         id="path4277" />
    </g>
    <g
       style="font-style:normal;font-variant:normal;font-weight:normal;font-stretch:normal;font-size:125px;line-height:125%;font-family:'Nimbus Sans L';-inkscape-font-specification:'Nimbus Sans L, Normal';text-align:start;letter-spacing:0px;word-spacing:0px;writing-mode:lr-tb;text-anchor:start;fill:#000000;fill-opacity:1;stroke:none;stroke-width:1px;stroke-linecap:butt;stroke-linejoin:miter;stroke-opacity:1"
       id="text4173-7-9-7-05">
      <path
         d="m -1069.7579,430.77292 -10.875,0 0,-10.25 c 0,-4.375 2.5,-6.625 7.25,-6.625 0.875,0 1.25,0 3.625,0.125 l 0,-8.625 c -2.375,-0.5 -3.75,-0.625 -5.875,-0.625 -9.625,0 -15.375,5.5 -15.375,14.875 l 0,11.125 -8.75,0 0,8.5 8.75,0 0,57 10.375,0 0,-57 10.875,0 0,-8.5 z"
         style=""
         id="path4274" />
    </g>
    <g
       style="font-style:normal;font-variant:normal;font-weight:normal;font-stretch:normal;font-size:125px;line-height:125%;font-family:'Nimbus Sans L';-inkscape-font-specification:'Nimbus Sans L, Normal';text-align:start;letter-spacing:0px;word-spacing:0px;writing-mode:lr-tb;text-anchor:start;fill:#000000;fill-opacity:1;stroke:none;stroke-width:1px;stroke-linecap:butt;stroke-linejoin:miter;stroke-opacity:1"
       id="text4173-7-9-7-9">
      <path
         d="m -983.71094,403.52292 0,9.5 c -5.25,-7.75 -11.625,-11.375 -19.99996,-11.375 -16.625,0 -27.875,14.5 -27.875,35.75 0,10.75 2.875,19.5 8.25,25.75 4.875,5.5 11.875,8.75 18.75,8.75 8.24996,0 13.99996,-3.5 19.87496,-11.75 l 0,3.375 c 0,8.875 -1.125,14.25 -3.75,17.875 -2.75,3.875 -8.125,6.125 -14.49996,6.125 -4.75,0 -9,-1.25 -11.875,-3.5 -2.375,-1.875 -3.375,-3.625 -4,-7.5 l -10.625,0 c 1.125,12.375 10.75,19.75 26.125,19.75 9.74996,0 18.12496,-3.125 22.37496,-8.375 5,-6 6.875,-14.25 6.875,-29.625 l 0,-54.75 -9.625,0 z m -18.87496,7.75 c 11.24996,0 17.87496,9.5 17.87496,25.875 0,15.625 -6.75,25.125 -17.74996,25.125 -11.375,0 -18.25,-9.625 -18.25,-25.5 0,-15.75 7,-25.5 18.125,-25.5 z"
         style=""
         id="path4271" />
    </g>
    <g
       style="font-style:normal;font-variant:normal;font-weight:normal;font-stretch:normal;font-size:125px;line-height:125%;font-family:'Nimbus Sans L';-inkscape-font-specification:'Nimbus Sans L, Normal';text-align:start;letter-spacing:0px;word-spacing:0px;writing-mode:lr-tb;text-anchor:start;fill:#000000;fill-opacity:1;stroke:none;stroke-width:1px;stroke-linecap:butt;stroke-linejoin:miter;stroke-opacity:1"
       id="text4173-7-9-7-02">
      <path
         d="m -935.91394,405.14792 0,91.125 10.375,0 0,-36.125 c 0,-13.375 7,-22.125 17.75,-22.125 3.375,0 6.75,1.125 9.25,3 3,2.125 4.25,5.25 4.25,9.875 l 0,45.375 10.375,0 0,-49.5 c 0,-11 -7.875,-17.875 -20.625,-17.875 -9.25,0 -14.875,2.875 -21,10.875 l 0,-34.625 -10.375,0 z"
         style=""
         id="path4268" />
    </g>
    <g
       style="font-style:normal;font-variant:normal;font-weight:normal;font-stretch:normal;font-size:125px;line-height:125%;font-family:'Nimbus Sans L';-inkscape-font-specification:'Nimbus Sans L, Normal';text-align:start;letter-spacing:0px;word-spacing:0px;writing-mode:lr-tb;text-anchor:start;fill:#000000;fill-opacity:1;stroke:none;stroke-width:1px;stroke-linecap:butt;stroke-linejoin:miter;stroke-opacity:1"
       id="text4173-7-9-7-87">
      <path
         d="m -835.24194,430.77292 -10.375,0 0,65.5 10.375,0 0,-65.5 z m 0,-25.625 -10.5,0 0,13.125 10.5,0 0,-13.125 z"
         style=""
         id="path4265" />
    </g>
    <g
       style="font-style:normal;font-variant:normal;font-weight:normal;font-stretch:normal;font-size:125px;line-height:125%;font-family:'Nimbus Sans L';-inkscape-font-specification:'Nimbus Sans L, Normal';text-align:start;letter-spacing:0px;word-spacing:0px;writing-mode:lr-tb;text-anchor:start;fill:#000000;fill-opacity:1;stroke:none;stroke-width:1px;stroke-linecap:butt;stroke-linejoin:miter;stroke-opacity:1"
       id="text4173-7-9-7-2">
      <path
         d="m -786.06995,403.52292 0,75 c 0,6.5 -2.125,8.625 -8.5,8.625 -0.375,0 -0.375,0 -2.5,-0.125 l 0,8.875 c 1.25,0.25 1.875,0.375 3.5,0.375 11.75,0 17.875,-4.75 17.875,-13.625 l 0,-79.125 -10.375,0 z m 10.375,-25.625 -10.375,0 0,13.125 10.375,0 0,-13.125 z"
         style=""
         id="path4262" />
    </g>
    <g
       style="font-style:normal;font-variant:normal;font-weight:normal;font-stretch:normal;font-size:24px;line-height:125%;font-family:'Nimbus Sans L';-inkscape-font-specification:'Nimbus Sans L, Normal';text-align:start;letter-spacing:0px;word-spacing:0px;writing-mode:lr-tb;text-anchor:start;fill:#000000;fill-opacity:1;stroke:none;stroke-width:1px;stroke-linecap:butt;stroke-linejoin:miter;stroke-opacity:1"
       id="text4288">
      <path
         d="m -685.41071,448.86221 c -0.5,-6.375 -1.875,-10.5 -4.375,-14.125 -4.5,-6.125 -12.375,-9.75 -21.5,-9.75 -17.625,0 -29.125,14 -29.125,35.75 0,21.125 11.25,34.5 29,34.5 15.625,0 25.5,-9.375 26.75,-25.375 l -10.5,0 c -1.75,10.5 -7.125,15.75 -16,15.75 -11.5,0 -18.375,-9.375 -18.375,-24.875 0,-16.375 6.75,-26.125 18.125,-26.125 8.75,0 14.25,5.125 15.5,14.25 l 10.5,0 z"
         style="font-style:normal;font-variant:normal;font-weight:normal;font-stretch:normal;font-size:125px;line-height:125%;font-family:'Nimbus Sans L';-inkscape-font-specification:'Nimbus Sans L, Normal';text-align:start;writing-mode:lr-tb;text-anchor:start"
         id="path4293" />
    </g>
  </g>
</svg>
