<?xml version="1.0" encoding="UTF-8" standalone="no"?>
<!-- Created with Inkscape (http://www.inkscape.org/) -->

<svg
   xmlns:dc="http://purl.org/dc/elements/1.1/"
   xmlns:cc="http://creativecommons.org/ns#"
   xmlns:rdf="http://www.w3.org/1999/02/22-rdf-syntax-ns#"
   xmlns:svg="http://www.w3.org/2000/svg"
   xmlns="http://www.w3.org/2000/svg"
   xmlns:sodipodi="http://sodipodi.sourceforge.net/DTD/sodipodi-0.dtd"
   xmlns:inkscape="http://www.inkscape.org/namespaces/inkscape"
   width="210mm"
   height="297mm"
   viewBox="0 0 744.09448819 1052.3622047"
   id="svg2"
   version="1.1"
   inkscape:version="0.91 r13725"
   sodipodi:docname="alphabet_large.svg">
  <defs
     id="defs4" />
  <sodipodi:namedview
     id="base"
     pagecolor="#ffffff"
     bordercolor="#666666"
     borderopacity="1.0"
     inkscape:pageopacity="0.0"
     inkscape:pageshadow="2"
     inkscape:zoom="0.7"
     inkscape:cx="-1541.0251"
     inkscape:cy="721.79717"
     inkscape:document-units="px"
     inkscape:current-layer="layer1"
     showgrid="false"
     inkscape:window-width="1920"
     inkscape:window-height="1061"
     inkscape:window-x="0"
     inkscape:window-y="0"
     inkscape:window-maximized="1" />
  <metadata
     id="metadata7">
    <rdf:RDF>
      <cc:Work
         rdf:about="">
        <dc:format>image/svg+xml</dc:format>
        <dc:type
           rdf:resource="http://purl.org/dc/dcmitype/StillImage" />
      </cc:Work>
    </rdf:RDF>
  </metadata>
  <g
     inkscape:label="Layer 1"
     inkscape:groupmode="layer"
     id="layer1">
    <g
       style="font-style:normal;font-variant:normal;font-weight:normal;font-stretch:normal;font-size:180px;line-height:125%;font-family:'Nimbus Sans L';-inkscape-font-specification:'Nimbus Sans L, Normal';text-align:start;letter-spacing:0px;word-spacing:0px;writing-mode:lr-tb;text-anchor:start;fill:#000000;fill-opacity:1;stroke:none;stroke-width:1px;stroke-linecap:butt;stroke-linejoin:miter;stroke-opacity:1"
       id="text4136">
      <path
         d="m -1255.1286,94.314338 c -1.62,0.36 -2.34,0.36 -3.24,0.36 -5.22,0 -8.1,-2.7 -8.1,-7.38 l 0,-55.44 c 0,-16.74 -12.24,-25.7399996 -35.46,-25.7399996 -13.68,0 -25.02,3.9599996 -31.32,10.9799996 -4.32,4.86 -6.12,10.26 -6.48,19.62 l 15.12,0 c 1.26,-11.52 8.1,-16.74 22.14,-16.74 13.5,0 21.06,5.04 21.06,14.04 l 0,3.96 c 0,6.3 -3.78,9 -15.66,10.44 -21.24,2.7 -24.48,3.42 -30.24,5.76 -10.98,4.5 -16.56,12.96 -16.56,25.2 0,17.1 11.88,27.900002 30.96,27.900002 11.88,0 21.42,-4.14 32.04,-13.860002 1.08,9.540002 5.76,13.860002 15.48,13.860002 3.06,0 5.4,-0.36 10.26,-1.62 l 0,-11.340002 z m -26.28,-20.88 c 0,5.04 -1.44,8.1 -5.94,12.24 -6.12,5.58 -13.5,8.46 -22.32,8.46 -11.7,0 -18.54,-5.58 -18.54,-15.12 0,-9.9 6.66,-14.94 22.68,-17.28 15.84,-2.16 19.08,-2.88 24.12,-5.22 l 0,16.92 z"
         style=""
         id="path4230" />
    </g>
    <g
       style="font-style:normal;font-variant:normal;font-weight:normal;font-stretch:normal;font-size:180px;line-height:125%;font-family:'Nimbus Sans L';-inkscape-font-specification:'Nimbus Sans L, Normal';text-align:start;letter-spacing:0px;word-spacing:0px;writing-mode:lr-tb;text-anchor:start;fill:#000000;fill-opacity:1;stroke:none;stroke-width:1px;stroke-linecap:butt;stroke-linejoin:miter;stroke-opacity:1"
       id="text4140">
      <path
         d="m -1037.6429,18.399337 -14.94,0 0,94.320003 14.94,0 0,-94.320003 z m 0,-36.9 -15.12,0 0,18.90000046 15.12,0 0,-18.90000046 z"
         style=""
         id="path4227" />
    </g>
  </g>
</svg>
